<svg version="1.1" xmlns="http://www.w3.org/2000/svg" viewBox="0 0 250 250"><desc>Created with Snap</desc><defs></defs><g transform="matrix(0.0655,0,0,0.0655,17.447,141.4508)"><g><g transform="matrix(1,0,0,-1,0,0)"><path d="M48 717L108 711Q123 558 137 81Q204 85 307 85Q410 85 472 88Q478 71 480 40Q483 9 486 -6Q355 2 152 2L41 2Q46 150 46 398Q47 646 48 717ZM549 514L595 504Q603 422 609 246Q615 71 617 29Q608 -2 582 -2Q564 -2 547 12Q531 27 527 48Q529 89 535 261Q541 434 549 514ZM563 693Q590 693 608 669Q626 646 626 616Q626 594 615 580Q605 567 587 567Q559 567 543 590Q527 613 527 644Q527 666 536 679Q546 693 563 693ZM1016 482L1006 442Q909 482 855 482Q807 482 787 467Q768 453 768 406Q768 368 795 343Q823 318 862 303Q901 289 940 272Q980 256 1007 224Q1035 192 1035 145Q1035 81 988 33Q941 -15 866 -16Q811 -16 763 7Q715 30 687 65L716 95Q728 90 751 79Q775 68 785 64Q795 61 814 57Q834 53 856 53Q903 53 933 74Q963 95 963 133Q963 158 949 175Q935 193 912 204Q889 215 861 225Q834 235 806 247Q779 260 756 277Q733 295 719 325Q705 355 705 396Q705 456 737 496Q770 537 829 537Q852 537 881 530Q910 523 927 517Q944 511 977 497Q1011 484 1016 482ZM1132 432L1112 483Q1138 509 1178 524Q1218 540 1257 540Q1426 540 1426 248Q1426 208 1421 130Q1417 52 1417 13Q1409 -18 1386 -18Q1368 -18 1353 0Q1338 18 1338 40Q1338 47 1339 50Q1277 -10 1207 -10Q1154 -10 1114 28Q1075 67 1075 122Q1075 215 1147 290Q1220 365 1312 365Q1316 365 1320 364Q1324 364 1329 363Q1335 362 1338 362Q1330 479 1245 479Q1195 479 1132 432ZM1341 119Q1343 189 1343 225Q1343 255 1341 309L1333 309Q1262 308 1203 256Q1145 204 1145 130Q1145 98 1164 79Q1184 60 1212 60Q1256 60 1341 119ZM1793 26L1798 730Q1809 767 1884 767Q1953 767 2011 748Q2069 730 2108 686Q2148 643 2148 582Q2148 534 2124 489Q2101 444 2067 431Q2131 422 2170 354Q2209 286 2209 193Q2209 130 2159 83Q2109 37 2042 16Q1976 -4 1908 -4Q1825 -4 1793 26ZM1875 376Q1875 307 1873 99Q1903 65 1950 65Q2012 65 2070 116Q2128 168 2128 227Q2128 300 2079 341Q2030 382 1953 382Q1902 382 1875 376ZM1873 450L1935 451Q1999 451 2033 488Q2068 526 2068 578Q2068 631 2033 669Q1998 708 1936 708Q1908 708 1870 696Q1872 635 1872 545Q1873 455 1873 450ZM2326 432L2306 483Q2332 509 2372 524Q2412 540 2451 540Q2620 540 2620 248Q2620 208 2615 130Q2611 52 2611 13Q2603 -18 2580 -18Q2562 -18 2547 0Q2532 18 2532 40Q2532 47 2533 50Q2471 -10 2401 -10Q2348 -10 2308 28Q2269 67 2269 122Q2269 215 2341 290Q2414 365 2506 365Q2510 365 2514 364Q2518 364 2523 363Q2529 362 2532 362Q2524 479 2439 479Q2389 479 2326 432ZM2535 119Q2537 189 2537 225Q2537 255 2535 309L2527 309Q2456 308 2397 256Q2339 204 2339 130Q2339 98 2358 79Q2378 60 2406 60Q2450 60 2535 119ZM2723 514L2769 504Q2777 422 2783 246Q2789 71 2791 29Q2782 -2 2756 -2Q2738 -2 2721 12Q2705 27 2701 48Q2703 89 2709 261Q2715 434 2723 514ZM2737 693Q2764 693 2782 669Q2800 646 2800 616Q2800 594 2789 580Q2779 567 2761 567Q2733 567 2717 590Q2701 613 2701 644Q2701 666 2710 679Q2720 693 2737 693ZM3187 516L3232 526Q3232 496 3233 479Q3239 260 3239 194Q3239 171 3240 122Q3241 73 3241 48Q3241 -7 3237 -47Q3234 -87 3222 -131Q3210 -174 3189 -202Q3169 -229 3131 -247Q3094 -265 3043 -265Q2999 -265 2888 -252Q2887 -241 2884 -228Q2882 -215 2882 -208Q2882 -193 2885 -184Q2893 -185 2947 -192Q3002 -199 3028 -199Q3097 -199 3134 -157Q3171 -115 3172 0Q3123 -28 3069 -28Q3024 -28 2990 -10Q2956 9 2936 37Q2916 66 2903 106Q2891 147 2886 185Q2882 223 2882 266Q2882 374 2929 447Q2977 520 3074 520Q3131 520 3186 485Q3187 495 3187 516ZM3175 97L3178 420Q3172 438 3140 448Q3109 459 3071 459Q3017 459 2987 409Q2957 360 2957 289Q2957 252 2961 216Q2965 181 2977 138Q2989 96 3016 70Q3043 44 3083 44Q3113 44 3138 58Q3163 73 3175 97Z" fill="#76528b" style=""></path></g></g></g></svg>